<svg width="30" height="30" viewBox="0 0 30 30" fill="none" xmlns="http://www.w3.org/2000/svg">
<path d="M16.6569 15.0008L29.6563 2.00131C30.1139 1.54364 30.1139 0.801606 29.6563 0.343989C29.1986 -0.113628 28.4566 -0.113686 27.9989 0.343989L14.9995 13.3435L2.00009 0.343989C1.54241 -0.113686 0.800383 -0.113686 0.342768 0.343989C-0.114848 0.801665 -0.114907 1.5437 0.342768 2.00131L13.3422 15.0007L0.342768 28.0002C-0.114907 28.4579 -0.114907 29.1999 0.342768 29.6576C0.571575 29.8864 0.871516 30.0007 1.17146 30.0007C1.4714 30.0007 1.77128 29.8864 2.00015 29.6576L14.9995 16.6581L27.9989 29.6576C28.2277 29.8864 28.5276 30.0007 28.8276 30.0007C29.1275 30.0007 29.4274 29.8864 29.6563 29.6576C30.1139 29.1999 30.1139 28.4578 29.6563 28.0002L16.6569 15.0008Z" fill="#EFBD9C"/>
</svg>
