<svg width="47" height="47" viewBox="0 0 47 47" fill="none" xmlns="http://www.w3.org/2000/svg">
<path d="M41.3591 12.8466H35.0925C34.4003 12.8466 33.8391 13.4078 33.8391 14.1V19.1133H28.8258C28.1336 19.1133 27.5725 19.6745 27.5725 20.3666V25.38H22.5591C21.867 25.38 21.3058 25.9412 21.3058 26.6333V31.6466H16.2925C15.6003 31.6466 15.0391 32.2078 15.0391 32.9V37.9133H10.0258C9.33364 37.9133 8.77246 38.4745 8.77246 39.1666C8.77246 39.8588 9.33364 40.42 10.0258 40.42H16.2925C16.9846 40.42 17.5458 39.8588 17.5458 39.1666V34.1533H22.5591C23.2513 34.1533 23.8125 33.5921 23.8125 32.9V27.8866H28.8258C29.518 27.8866 30.0791 27.3255 30.0791 26.6333V21.62H35.0925C35.7846 21.62 36.3458 21.0588 36.3458 20.3666V15.3533H41.3591C42.0513 15.3533 42.6125 14.7921 42.6125 14.1C42.6125 13.4078 42.0514 12.8466 41.3591 12.8466Z" fill="black"/>
<path d="M16.3036 19.4058C16.4533 21.3428 18.0775 22.8733 20.0523 22.8733C22.1256 22.8733 23.8123 21.1865 23.8123 19.1133V10.34C23.8123 8.26682 22.1256 6.57999 20.0523 6.57999H11.279C9.20563 6.57999 7.51895 8.26682 7.51895 10.34C7.51895 12.3148 9.04943 13.9389 10.9865 14.0887L5.48714 19.588C4.02121 21.054 4.02121 23.4392 5.48714 24.9051C6.22003 25.638 7.1829 26.0046 8.14562 26.0046C9.10834 26.0046 10.0712 25.638 10.8041 24.9051L16.3036 19.4058ZM7.25967 23.1326C6.77103 22.6441 6.77103 21.8492 7.25967 21.3605L14.8875 13.7328C15.2459 13.3743 15.3532 12.8352 15.1591 12.3668C14.965 11.8984 14.508 11.5933 14.001 11.5933H11.279C10.5879 11.5933 10.0256 11.031 10.0256 10.34C10.0256 9.64893 10.5879 9.08665 11.279 9.08665H20.0523C20.7433 9.08665 21.3056 9.64893 21.3056 10.34V19.1133C21.3056 19.8044 20.7433 20.3667 20.0523 20.3667C19.3612 20.3667 18.7989 19.8044 18.7989 19.1133V16.3912C18.7989 15.8844 18.4936 15.4274 18.0253 15.2333C17.5571 15.0392 17.0178 15.1465 16.6595 15.5048L9.03173 23.1326C8.54308 23.6213 7.74831 23.6213 7.25967 23.1326Z" fill="black"/>
</svg>
