<svg width="20" height="20" viewBox="0 0 20 20" fill="none" xmlns="http://www.w3.org/2000/svg">
<g clip-path="url(#clip0)">
<path d="M8.46153 0H0.769246C0.344396 0 0 0.344396 0 0.769246V8.46157C0 8.88642 0.344396 9.23082 0.769246 9.23082H8.46157C8.88642 9.23082 9.23082 8.88642 9.23082 8.46157V0.769246C9.23077 0.344396 8.88638 0 8.46153 0Z" fill="#EFBD9C"/>
<path d="M19.2309 0H11.5385C11.1137 0 10.7693 0.344396 10.7693 0.769246V8.46157C10.7693 8.88642 11.1137 9.23082 11.5385 9.23082H19.2309C19.6557 9.23082 20.0001 8.88642 20.0001 8.46157V0.769246C20.0001 0.344396 19.6557 0 19.2309 0Z" fill="#EFBD9C"/>
<path d="M8.46153 10.7692H0.769246C0.344396 10.7692 0 11.1136 0 11.5384V19.2307C0 19.6556 0.344396 20 0.769246 20H8.46157C8.88642 20 9.23082 19.6556 9.23082 19.2307V11.5384C9.23077 11.1136 8.88638 10.7692 8.46153 10.7692Z" fill="#EFBD9C"/>
<path d="M19.2309 10.7692H11.5385C11.1137 10.7692 10.7693 11.1136 10.7693 11.5384V19.2307C10.7693 19.6556 11.1137 20 11.5385 20H19.2309C19.6557 20 20.0001 19.6556 20.0001 19.2307V11.5384C20.0001 11.1136 19.6557 10.7692 19.2309 10.7692Z" fill="#EFBD9C"/>
</g>
<defs>
<clipPath id="clip0">
<rect width="20" height="20" fill="white"/>
</clipPath>
</defs>
</svg>
