<svg width="27" height="36" viewBox="0 0 27 36" fill="none" xmlns="http://www.w3.org/2000/svg">
<path d="M13.5003 0C6.51086 0 0.824585 5.84873 0.824585 13.0378C0.824585 21.9596 12.1681 35.0573 12.651 35.6105C13.1047 36.1302 13.8967 36.1293 14.3495 35.6105C14.8324 35.0573 26.1759 21.9596 26.1759 13.0378C26.1758 5.84873 20.4896 0 13.5003 0ZM13.5003 19.5974C9.98372 19.5974 7.12288 16.6548 7.12288 13.0378C7.12288 9.42075 9.98379 6.47817 13.5003 6.47817C17.0167 6.47817 19.8776 9.42082 19.8776 13.0378C19.8776 16.6549 17.0167 19.5974 13.5003 19.5974Z" fill="#E8ACAB"/>
</svg>
