<svg width="42" height="42" viewBox="0 0 42 42" fill="none" xmlns="http://www.w3.org/2000/svg">
<g clip-path="url(#clip0)">
<path d="M17.4485 28.7669H6.59539V22.1564C6.59539 22.075 6.58322 21.9943 6.5595 21.9164L4.52475 15.2578C4.24181 14.3324 3.40163 13.7107 2.43392 13.7107C1.73602 13.7107 1.09675 14.0318 0.679868 14.5919C0.263305 15.152 0.139617 15.8563 0.339888 16.5251L2.17469 22.6415V29.8131C2.17469 31.4704 3.30037 32.8688 4.82724 33.286L3.52884 41.044C3.45386 41.491 3.75571 41.9137 4.2024 41.9887C4.24822 41.9964 4.29404 41.9999 4.3389 41.9999C4.73239 41.9999 5.08006 41.716 5.14703 41.3148L5.40915 39.7495H16.1257L16.3878 41.3148C16.4551 41.716 16.8025 41.9999 17.196 41.9999C17.2408 41.9999 17.2867 41.9964 17.3325 41.9887C17.7792 41.9137 18.081 41.491 18.006 41.044L16.7291 33.4135H17.4485C18.6674 33.4135 19.6592 32.4215 19.6592 31.2025V30.9779C19.6592 29.7587 18.6674 28.7669 17.4485 28.7669ZM3.81563 29.8131V22.521C3.81563 22.4413 3.80378 22.3618 3.78103 22.2855L1.91162 16.0534C1.86163 15.8868 1.89239 15.7109 1.99653 15.5712C2.10035 15.4315 2.25993 15.3513 2.43392 15.3513C2.67553 15.3513 2.88509 15.5064 2.95559 15.7375L4.95477 22.2788V31.5925C4.28282 31.2814 3.81563 30.6008 3.81563 29.8131ZM15.8514 38.1085H5.68376L6.46946 33.4135H15.0654L15.8514 38.1085ZM18.0185 31.2025C18.0185 31.5169 17.7628 31.7726 17.4485 31.7726H6.59539V30.4076H17.4485C17.7628 30.4076 18.0185 30.6636 18.0185 30.9779V31.2025Z" fill="black"/>
<path d="M34.5758 23.3045C34.3803 23.0129 34.0067 22.8719 33.6683 22.9712C33.3427 23.0667 33.1053 23.3538 33.0761 23.6929C33.0467 24.0338 33.2444 24.3658 33.5552 24.5061C33.8631 24.6455 34.2336 24.5785 34.4732 24.3395C34.7469 24.0671 34.7902 23.6252 34.5758 23.3045Z" fill="black"/>
<path d="M41.5499 11.5462L29.2995 0.215C28.9902 -0.0708266 28.4948 -0.0727493 28.1853 0.215L15.9332 11.5468C15.6269 11.8304 15.582 12.2989 15.8294 12.6353C16.0704 12.9625 16.5126 13.0631 16.8695 12.8766C17.4767 12.5927 18.1371 12.394 18.7879 12.2415C19.9617 11.9666 21.2402 11.8551 22.4063 12.2252C22.7456 12.3328 23.0718 12.4831 23.3702 12.6786C23.5525 12.7984 23.7101 12.9327 23.9351 12.9628C24.1257 12.9881 24.3023 12.9404 24.4696 12.8513C25.5545 12.253 26.7244 11.8974 27.9107 11.7843V22.9392H25.4546L26.0858 19.2904C26.1272 19.052 26.0612 18.8075 25.9051 18.6223C25.7494 18.4371 25.5196 18.3301 25.2777 18.3301H20.9457C20.7038 18.3301 20.4741 18.4371 20.3183 18.622C20.1623 18.8072 20.0963 19.0514 20.1373 19.2898L20.766 22.9392H18.5294C17.2822 22.9392 16.2677 23.9537 16.2677 25.2005C16.2677 26.4476 17.2822 27.4621 18.5294 27.4621H26.511V36.6887L22.8097 40.6166C22.4989 40.9463 22.5143 41.4654 22.844 41.7762C23.0026 41.9255 23.2045 41.9995 23.4064 41.9995C23.6246 41.9995 23.8421 41.913 24.0036 41.7416L26.5107 39.081V39.7793C26.5107 41.0036 27.5069 41.9995 28.731 41.9995C29.9551 41.9995 30.9513 41.0036 30.9513 39.7793V39.081L33.4584 41.7416C33.6199 41.913 33.8374 41.9995 34.0557 41.9995C34.2575 41.9995 34.4597 41.9255 34.618 41.7762C34.9477 41.4654 34.9631 40.9463 34.6523 40.6166L30.951 36.6887V27.4621H38.9326C40.1798 27.4621 41.1943 26.4476 41.1943 25.2005C41.1943 23.9537 40.1798 22.9392 38.9326 22.9392H37.1299C36.6768 22.9392 36.3093 23.3064 36.3093 23.7595C36.3093 24.2126 36.6768 24.5798 37.1299 24.5798H38.9326C39.2749 24.5798 39.5533 24.8583 39.5533 25.2005C39.5533 25.5427 39.2749 25.8212 38.9326 25.8212H18.5294C18.1871 25.8212 17.9087 25.5427 17.9087 25.2005C17.9087 24.8583 18.1871 24.5798 18.5294 24.5798H30.6764C31.1291 24.5798 31.4967 24.2126 31.4967 23.7595C31.4967 23.3064 31.1291 22.9392 30.6764 22.9392H29.5516V11.782C30.7456 11.8929 31.9235 12.2492 33.0149 12.8516C33.1812 12.9407 33.3587 12.9884 33.5487 12.9631C33.7506 12.9362 33.8961 12.8266 34.0592 12.7154C34.3216 12.536 34.6074 12.3921 34.9061 12.2828C35.4976 12.0666 36.1317 11.9861 36.7595 11.9909C37.8345 11.9989 38.9073 12.2409 39.9177 12.5991C40.1522 12.6824 40.3877 12.7696 40.613 12.8753C40.9712 13.0628 41.4147 12.9612 41.6554 12.6324C41.9011 12.2963 41.856 11.8288 41.5499 11.5462ZM29.3107 27.4621V39.7796C29.3107 40.099 29.0505 40.3589 28.731 40.3589C28.4115 40.3589 28.1517 40.099 28.1517 39.7796V27.4621H29.3107ZM22.431 22.9392L21.9195 19.971H24.3033L23.7899 22.9392H22.431ZM16.8743 12.8741C16.8827 12.8696 16.8913 12.8648 16.8996 12.86C16.8951 12.8628 16.8865 12.8676 16.8743 12.8741ZM20.7753 10.3478C20.3587 10.3478 19.9498 10.3785 19.558 10.4295L26.5511 3.96151L23.6515 10.9559C22.7267 10.5089 21.7315 10.3478 20.7753 10.3478ZM28.7425 2.95983L31.9094 10.6009C30.8882 10.2779 29.8182 10.1106 28.7425 10.1106C28.7422 10.1106 28.7425 10.1106 28.7422 10.1106C28.7393 10.1106 28.7361 10.111 28.7329 10.111C28.7323 10.111 28.7316 10.111 28.731 10.111C28.7297 10.111 28.7281 10.111 28.7265 10.111C27.6563 10.1126 26.5911 10.2795 25.5747 10.6012L28.7425 2.95983ZM33.8333 10.9569L30.9337 3.96151L37.9364 10.4384C36.6399 10.2692 35.1602 10.3192 33.8333 10.9569Z" fill="black"/>
</g>
<defs>
<clipPath id="clip0">
<rect width="42" height="42" fill="white"/>
</clipPath>
</defs>
</svg>
