<svg width="28" height="28" viewBox="0 0 28 28" fill="none" xmlns="http://www.w3.org/2000/svg">
<path d="M25.3148 18.2193C23.6851 18.2193 22.0848 17.9644 20.5684 17.4633C19.8253 17.2098 18.9119 17.4423 18.4584 17.9081L15.4652 20.1676C11.9941 18.3147 9.8559 16.1772 8.02829 12.7321L10.2213 9.81695C10.7911 9.24796 10.9954 8.41678 10.7506 7.63691C10.2473 6.11251 9.99164 4.51304 9.99164 2.88258C9.9917 1.70473 9.03346 0.74649 7.85568 0.74649H2.96708C1.7893 0.74649 0.831055 1.70473 0.831055 2.88251C0.831055 16.383 11.8143 27.3662 25.3148 27.3662C26.4926 27.3662 27.4508 26.408 27.4508 25.2302V20.3552C27.4508 19.1775 26.4925 18.2193 25.3148 18.2193Z" fill="white"/>
</svg>
