<svg width="40" height="40" viewBox="0 0 40 40" fill="none" xmlns="http://www.w3.org/2000/svg">
<path d="M39.992 21.5262C39.9442 20.4184 38.8603 19.5338 36.7643 18.8962C35.1385 18.4101 33.0743 18.1152 30.8428 18.0674V9.56366C30.8348 9.42021 30.795 9.28472 30.7233 9.16518C30.5001 8.20084 29.4242 7.41981 27.5194 6.84599C25.7262 6.30405 23.3831 6.00917 20.9205 6.00917C18.4658 6.00917 16.1466 6.30405 14.3853 6.84599C12.9428 7.2923 11.2134 8.12115 11.2134 9.54773C11.2134 9.63539 11.2214 9.72306 11.2373 9.81073L11.325 13.4449C6.14465 12.4567 1.14764 15.8597 0.167364 21.0321C0.055788 21.6218 0 22.2116 0 22.8093C0 28.0694 4.27974 32.3491 9.53975 32.3491C11.7314 32.3491 13.8514 31.5999 15.5489 30.2132C17.0393 30.5639 18.7926 30.7551 20.6495 30.7711C21.056 32.9787 25.8378 33.9909 30.2929 33.9909C32.7476 33.9909 35.0667 33.688 36.8281 33.1381C38.2706 32.6918 40 31.855 40 30.4284V21.6776C40 21.6298 40 21.574 39.992 21.5262ZM29.1771 13.9709C29.1771 14.0745 28.7946 14.6244 27.0652 15.1504C25.4473 15.6366 23.2078 15.9235 20.9285 15.9235C18.96 15.9235 17.0313 15.7163 15.5011 15.3258C15.4772 15.3178 15.4612 15.3178 15.4373 15.3098C14.6802 14.7121 13.8434 14.2339 12.9428 13.8992L12.887 11.6517C13.4369 11.9307 14.0108 12.1538 14.6085 12.3132C16.3379 12.8153 18.5774 13.0863 20.9285 13.0863C23.3831 13.0863 25.7342 12.7914 27.5274 12.2495C28.1251 12.0741 28.7069 11.843 29.2568 11.5561V13.6442C29.1692 13.7557 29.1771 13.8593 29.1771 13.9709ZM14.8635 8.38415C16.4734 7.89002 18.6252 7.61108 20.9205 7.61108C23.1998 7.61108 25.4393 7.89002 27.0572 8.38415C28.7866 8.91015 29.1692 9.45209 29.1692 9.55569C29.1692 9.66727 28.7786 10.2172 27.0492 10.7352C25.4314 11.2214 23.1998 11.5003 20.9205 11.5003C18.7209 11.5003 16.6328 11.2453 15.0468 10.783C13.3333 10.2889 12.8552 9.74697 12.8153 9.57163C12.8153 9.55569 12.8073 9.55569 12.8073 9.55569C12.8153 9.40427 13.1819 8.89421 14.8635 8.38415ZM14.8874 28.691C11.6438 31.6398 6.61486 31.4087 3.66607 28.165C0.717274 24.9213 0.948396 19.8924 4.19207 16.9436C5.65053 15.6127 7.56326 14.8795 9.53975 14.8795C10.3367 14.8795 11.1257 14.999 11.8908 15.2301C14.6563 16.0909 16.7364 18.3861 17.3262 21.2154C17.4298 21.7414 17.4856 22.2833 17.4856 22.8173C17.4935 25.0568 16.5451 27.1847 14.8874 28.691ZM16.9117 28.8663C17.5573 28.0773 18.0753 27.1927 18.4419 26.2443C19.1193 26.3001 19.8207 26.3399 20.5539 26.3479V26.4913L20.6017 29.1931C19.3664 29.1771 18.1311 29.0656 16.9117 28.8663ZM19.0396 21.8689C19.5019 21.9008 19.988 21.9167 20.4822 21.9247L20.53 24.746C19.9721 24.738 19.4222 24.7141 18.8962 24.6742C19.0157 24.0606 19.0795 23.431 19.0795 22.8093C19.0795 22.4985 19.0636 22.1877 19.0396 21.8689ZM21.0002 20.3387C20.9763 20.3387 20.9444 20.3387 20.9205 20.3387C20.1554 20.3387 19.4142 20.3068 18.7288 20.259C18.426 19.1911 17.9478 18.1869 17.3023 17.2943C18.4977 17.4457 19.7011 17.5254 20.9125 17.5254C23.3752 17.5254 25.7262 17.2305 27.5194 16.6886C28.1172 16.5133 28.691 16.2821 29.2409 16.0032V18.0913C25.8219 18.1869 22.3072 18.9042 21.0002 20.3387ZM22.0522 21.6059C22.0522 21.5979 22.0522 21.59 22.0602 21.574C22.1319 21.3588 22.6978 20.8328 24.3475 20.3706C25.8936 19.9323 27.9099 19.6932 30.0299 19.6932H30.1654C32.4447 19.6932 34.6762 19.9562 36.3021 20.4503C37.9996 20.9604 38.3981 21.4864 38.4061 21.6059V21.6139C38.3981 21.7334 37.9996 22.2833 36.2303 22.8093C34.5965 23.2955 32.4447 23.5585 30.1733 23.5585C27.9737 23.5585 25.8856 23.3035 24.2997 22.8492C22.5862 22.3551 22.116 21.8052 22.0681 21.6378C22.0522 21.6059 22.0522 21.6059 22.0522 21.6059ZM36.3658 31.6238C34.7559 32.1259 32.5961 32.4049 30.3009 32.4049C27.9976 32.4049 25.8458 32.1339 24.2518 31.6478C22.5702 31.1297 22.2196 30.5957 22.2196 30.4762C22.2196 30.4682 22.2196 30.4682 22.2196 30.4603L22.1797 28.149C22.8173 28.4599 23.4788 28.699 24.1642 28.8743C25.8378 29.3126 27.9657 29.5597 30.1494 29.5597C32.6121 29.5597 34.9472 29.2648 36.7324 28.7229C37.3142 28.5475 37.8721 28.3164 38.4061 28.0454V30.4364H38.414C38.414 30.5479 38.0474 31.0978 36.3658 31.6238ZM38.422 25.7581H38.414C38.414 25.8378 38.3662 25.9335 38.3662 26.0211C38.3662 26.1327 37.9916 26.6746 36.2702 27.2006C34.6364 27.6948 32.4607 27.9657 30.1574 27.9657C25.7422 27.9657 22.7695 26.9695 22.1478 26.1965L22.1399 25.527L22.108 23.694C22.6659 23.9729 23.2477 24.1961 23.8454 24.3634C25.5748 24.8655 27.8143 25.1365 30.1654 25.1365C32.5882 25.1365 34.8994 24.8496 36.6766 24.3236C37.2823 24.1562 37.8641 23.9251 38.422 23.6382V25.7581Z" fill="black"/>
<path d="M12.4407 23.941C12.0741 22.642 10.8866 21.7494 9.53974 21.7494C8.75871 21.7494 8.12113 21.1198 8.12113 20.3387C8.1291 19.5497 8.75871 18.9201 9.53974 18.9201C10.3208 18.9201 10.9584 19.5577 10.9584 20.3387C10.9584 20.7771 11.317 21.1357 11.7553 21.1357C12.1937 21.1357 12.5523 20.7771 12.5523 20.3387C12.5523 18.9918 11.6597 17.8044 10.3606 17.4377V17.0791C10.3606 16.6408 10.002 16.2821 9.56365 16.2821C9.12532 16.2821 8.76668 16.6408 8.76668 17.0791V17.4218C7.16476 17.8522 6.2084 19.5019 6.63876 21.1038C6.98943 22.4188 8.17692 23.3353 9.53974 23.3353C10.3208 23.3353 10.9584 23.9649 10.9584 24.746C10.9584 25.527 10.3287 26.1646 9.54771 26.1646C8.76668 26.1646 8.1291 25.535 8.1291 24.7539C8.1291 24.3156 7.77046 23.957 7.33213 23.957C6.89379 23.957 6.53516 24.3156 6.53516 24.7539C6.54313 26.1168 7.45167 27.3043 8.76668 27.6629V28.3563C8.76668 28.7946 9.12532 29.1532 9.56365 29.1532C10.002 29.1532 10.3606 28.7946 10.3606 28.3563V27.6549C11.9625 27.2006 12.895 25.5429 12.4407 23.941Z" fill="black"/>
</svg>
