<svg width="45" height="45" viewBox="0 0 45 45" fill="none" xmlns="http://www.w3.org/2000/svg">
<g clip-path="url(#clip0)">
<path d="M3.35183 3.4983C3.35183 3.58607 3.28077 3.65713 3.19301 3.65713C3.10524 3.65713 3.03418 3.58607 3.03418 3.4983V1.5372C3.03418 0.965731 3.49991 0.5 4.07138 0.5H28.6786C29.2501 0.5 29.7158 0.965731 29.7158 1.5372V8.71285C29.7158 8.80061 29.6448 8.87167 29.557 8.87167C29.4693 8.87167 29.3982 8.80057 29.3982 8.71285V1.5372C29.3982 1.13973 29.0756 0.817566 28.6785 0.817566H4.07147C3.67422 0.817566 3.35183 1.13995 3.35183 1.5372V3.4983Z" fill="black" stroke="black"/>
<mask id="path-2-inside-1" fill="white">
<path d="M40.0504 16.8826H39.5891V13.7304C39.5891 12.3985 38.5054 11.3148 37.1735 11.3148H8.357C7.02502 11.3148 5.94142 12.3985 5.94142 13.7304V16.0695H4.0705C3.94938 16.0695 3.85086 15.971 3.85086 15.8498V6.56349C3.85086 6.19962 3.5559 5.90466 3.19203 5.90466C2.82816 5.90466 2.5332 6.19954 2.5332 6.56349V15.8498C2.5332 16.6974 3.22279 17.387 4.07041 17.387H5.94124V21.3526C5.94124 22.6844 7.02484 23.7681 8.35682 23.7681H37.1732C38.5052 23.7681 39.5888 22.6844 39.5888 21.3526V18.2003H40.0501C40.6556 18.2003 41.1481 18.6928 41.1481 19.2983V22.9149C41.1481 23.6757 40.58 24.33 39.8267 24.4368L24.5601 26.6016C23.2307 26.7902 22.2127 27.8969 22.1146 29.2189H20.2093C19.6038 29.2189 19.1113 29.7115 19.1113 30.3169V31.7374C19.1113 32.5506 19.2783 33.3398 19.6075 34.0833C19.8619 34.6578 19.9909 35.2675 19.9909 35.8957V43.902C19.9909 44.5075 20.4834 45 21.0889 45H24.4409C25.0463 45 25.5389 44.5075 25.5389 43.902V42.4242C25.5389 42.0603 25.2439 41.7654 24.8801 41.7654C24.5162 41.7654 24.2212 42.0603 24.2212 42.4242V43.6824H21.3085V35.8956C21.3085 35.0825 21.1415 34.2932 20.8121 33.5496C20.5578 32.9753 20.4288 32.3655 20.4288 31.7373V30.5365H25.1012V31.7373C25.1012 32.3655 24.9723 32.9753 24.7178 33.5496C24.3885 34.2932 24.2215 35.0825 24.2215 35.8956V39.2098C24.2215 39.5737 24.5165 39.8686 24.8803 39.8686C25.2442 39.8686 25.5391 39.5737 25.5391 39.2098V35.8956C25.5391 35.2675 25.6682 34.6577 25.9225 34.0832C26.2518 33.3398 26.4188 32.5505 26.4188 31.7373V30.3169C26.4188 29.7115 25.9262 29.2189 25.3207 29.2189H23.4401C23.5331 28.5505 24.0623 28.003 24.7454 27.9062L40.012 25.7414C41.411 25.543 42.466 24.3278 42.466 22.9149V19.2983C42.466 17.9663 41.3823 16.8826 40.0504 16.8826ZM14.2133 17.0846C14.0914 17.0208 13.9588 16.9892 13.8268 16.9892C13.6607 16.9892 13.4954 17.0392 13.3532 17.1377C13.0666 17.3364 12.73 17.4415 12.3799 17.4415C11.4355 17.4415 10.667 16.6731 10.667 15.7286V12.6323H34.4787V15.7267C34.4787 16.6712 33.7103 17.4396 32.7659 17.4396C31.9138 17.4396 31.1845 16.804 31.0696 15.9613C31.0346 15.7047 30.8784 15.4758 30.652 15.3487C30.4258 15.2218 30.1493 15.208 29.9123 15.3118C29.6957 15.4066 29.4651 15.4548 29.2271 15.4548C28.6791 15.4548 28.1772 15.2015 27.8501 14.7599C27.6944 14.5496 27.4446 14.424 27.182 14.424C26.9194 14.424 26.6696 14.5496 26.5139 14.7598C26.1869 15.2014 25.6849 15.4548 25.1369 15.4548H18.7457C18.3819 15.4548 18.0869 15.7496 18.0869 16.1136V18.1272C18.0869 19.0716 17.3185 19.84 16.374 19.84C15.4295 19.84 14.6611 19.0716 14.6611 18.1272V17.8243C14.6611 17.5127 14.4896 17.2293 14.2133 17.0846ZM38.2714 21.3526C38.2714 21.958 37.7789 22.4506 37.1734 22.4506H8.357C7.75152 22.4506 7.25899 21.958 7.25899 21.3526V13.7304C7.25899 13.125 7.75152 12.6324 8.357 12.6324H9.34946V15.7287C9.34946 17.3998 10.7089 18.7592 12.3799 18.7592C12.7238 18.7592 13.0605 18.7018 13.379 18.5905C13.6027 20.0425 14.8606 21.1577 16.3741 21.1577C18.0452 21.1577 19.4046 19.7982 19.4046 18.1272V16.7725H25.1369C25.8965 16.7725 26.6278 16.4823 27.182 15.9768C27.7361 16.4824 28.4674 16.7725 29.2271 16.7725C29.4542 16.7725 29.6777 16.7476 29.8957 16.6984C30.3051 17.9041 31.4532 18.7573 32.7659 18.7573C34.437 18.7573 35.7964 17.3978 35.7964 15.7269V12.6325H37.1735C37.7789 12.6325 38.2715 13.125 38.2715 13.7305V21.3526H38.2714Z"/>
</mask>
<path d="M40.0504 16.8826H39.5891V13.7304C39.5891 12.3985 38.5054 11.3148 37.1735 11.3148H8.357C7.02502 11.3148 5.94142 12.3985 5.94142 13.7304V16.0695H4.0705C3.94938 16.0695 3.85086 15.971 3.85086 15.8498V6.56349C3.85086 6.19962 3.5559 5.90466 3.19203 5.90466C2.82816 5.90466 2.5332 6.19954 2.5332 6.56349V15.8498C2.5332 16.6974 3.22279 17.387 4.07041 17.387H5.94124V21.3526C5.94124 22.6844 7.02484 23.7681 8.35682 23.7681H37.1732C38.5052 23.7681 39.5888 22.6844 39.5888 21.3526V18.2003H40.0501C40.6556 18.2003 41.1481 18.6928 41.1481 19.2983V22.9149C41.1481 23.6757 40.58 24.33 39.8267 24.4368L24.5601 26.6016C23.2307 26.7902 22.2127 27.8969 22.1146 29.2189H20.2093C19.6038 29.2189 19.1113 29.7115 19.1113 30.3169V31.7374C19.1113 32.5506 19.2783 33.3398 19.6075 34.0833C19.8619 34.6578 19.9909 35.2675 19.9909 35.8957V43.902C19.9909 44.5075 20.4834 45 21.0889 45H24.4409C25.0463 45 25.5389 44.5075 25.5389 43.902V42.4242C25.5389 42.0603 25.2439 41.7654 24.8801 41.7654C24.5162 41.7654 24.2212 42.0603 24.2212 42.4242V43.6824H21.3085V35.8956C21.3085 35.0825 21.1415 34.2932 20.8121 33.5496C20.5578 32.9753 20.4288 32.3655 20.4288 31.7373V30.5365H25.1012V31.7373C25.1012 32.3655 24.9723 32.9753 24.7178 33.5496C24.3885 34.2932 24.2215 35.0825 24.2215 35.8956V39.2098C24.2215 39.5737 24.5165 39.8686 24.8803 39.8686C25.2442 39.8686 25.5391 39.5737 25.5391 39.2098V35.8956C25.5391 35.2675 25.6682 34.6577 25.9225 34.0832C26.2518 33.3398 26.4188 32.5505 26.4188 31.7373V30.3169C26.4188 29.7115 25.9262 29.2189 25.3207 29.2189H23.4401C23.5331 28.5505 24.0623 28.003 24.7454 27.9062L40.012 25.7414C41.411 25.543 42.466 24.3278 42.466 22.9149V19.2983C42.466 17.9663 41.3823 16.8826 40.0504 16.8826ZM14.2133 17.0846C14.0914 17.0208 13.9588 16.9892 13.8268 16.9892C13.6607 16.9892 13.4954 17.0392 13.3532 17.1377C13.0666 17.3364 12.73 17.4415 12.3799 17.4415C11.4355 17.4415 10.667 16.6731 10.667 15.7286V12.6323H34.4787V15.7267C34.4787 16.6712 33.7103 17.4396 32.7659 17.4396C31.9138 17.4396 31.1845 16.804 31.0696 15.9613C31.0346 15.7047 30.8784 15.4758 30.652 15.3487C30.4258 15.2218 30.1493 15.208 29.9123 15.3118C29.6957 15.4066 29.4651 15.4548 29.2271 15.4548C28.6791 15.4548 28.1772 15.2015 27.8501 14.7599C27.6944 14.5496 27.4446 14.424 27.182 14.424C26.9194 14.424 26.6696 14.5496 26.5139 14.7598C26.1869 15.2014 25.6849 15.4548 25.1369 15.4548H18.7457C18.3819 15.4548 18.0869 15.7496 18.0869 16.1136V18.1272C18.0869 19.0716 17.3185 19.84 16.374 19.84C15.4295 19.84 14.6611 19.0716 14.6611 18.1272V17.8243C14.6611 17.5127 14.4896 17.2293 14.2133 17.0846ZM38.2714 21.3526C38.2714 21.958 37.7789 22.4506 37.1734 22.4506H8.357C7.75152 22.4506 7.25899 21.958 7.25899 21.3526V13.7304C7.25899 13.125 7.75152 12.6324 8.357 12.6324H9.34946V15.7287C9.34946 17.3998 10.7089 18.7592 12.3799 18.7592C12.7238 18.7592 13.0605 18.7018 13.379 18.5905C13.6027 20.0425 14.8606 21.1577 16.3741 21.1577C18.0452 21.1577 19.4046 19.7982 19.4046 18.1272V16.7725H25.1369C25.8965 16.7725 26.6278 16.4823 27.182 15.9768C27.7361 16.4824 28.4674 16.7725 29.2271 16.7725C29.4542 16.7725 29.6777 16.7476 29.8957 16.6984C30.3051 17.9041 31.4532 18.7573 32.7659 18.7573C34.437 18.7573 35.7964 17.3978 35.7964 15.7269V12.6325H37.1735C37.7789 12.6325 38.2715 13.125 38.2715 13.7305V21.3526H38.2714Z" fill="black" stroke="black" stroke-width="2" mask="url(#path-2-inside-1)"/>
<path d="M11.3434 25.6497L11.3434 25.6497C11.4717 25.4681 11.6815 25.3596 11.9032 25.3596C12.1249 25.3596 12.3347 25.4681 12.4632 25.6498L12.4632 25.6498C13.9641 27.7724 13.9541 28.48 13.9521 28.6259C13.952 28.6306 13.952 28.6347 13.952 28.6382C13.952 29.7675 13.0325 30.687 11.9032 30.687C10.774 30.687 9.85449 29.7675 9.85449 28.6382C9.85449 28.6347 9.85443 28.6306 9.85437 28.6259C9.85231 28.48 9.84231 27.7724 11.3434 25.6497ZM12.3139 25.9902L11.9032 25.3987L11.4925 25.9902C11.0298 26.6566 10.7081 27.1996 10.4997 27.6206C10.3957 27.8308 10.3169 28.0165 10.2631 28.1762C10.2125 28.3266 10.1721 28.4881 10.1721 28.6382C10.1721 29.5932 10.9482 30.3694 11.9032 30.3694C12.8582 30.3694 13.6344 29.5932 13.6344 28.6382C13.6344 28.4881 13.5939 28.3266 13.5433 28.1762C13.4895 28.0165 13.4108 27.8308 13.3067 27.6206C13.0983 27.1996 12.7766 26.6566 12.3139 25.9902Z" fill="black" stroke="black"/>
</g>
<defs>
<clipPath id="clip0">
<rect width="45" height="45" fill="white"/>
</clipPath>
</defs>
</svg>
