<svg width="40" height="40" viewBox="0 0 40 40" fill="none" xmlns="http://www.w3.org/2000/svg">
<path d="M39.0098 8.13725C39.549 8.13725 39.9902 7.69608 40 7.15686V0.990196C40 0.441177 39.5588 0 39.0098 0H32.8431C32.3039 0 31.8627 0.441177 31.8627 0.990196V3.13725H8.13725V0.990196C8.13725 0.45098 7.69608 0.00980392 7.15686 0H0.990196C0.45098 0 0.00980392 0.441177 0 0.990196V7.15686C0 7.69608 0.441177 8.13725 0.990196 8.13725H3.13725V31.8627H0.990196C0.45098 31.8627 0.00980392 32.3039 0 32.8431V39.0098C0 39.549 0.441177 39.9902 0.990196 40H7.15686C7.69608 40 8.13725 39.5588 8.13725 39.0098V36.8627H31.8627V39.0098C31.8627 39.549 32.3039 39.9902 32.8431 40H39.0098C39.549 40 39.9902 39.5588 40 39.0098V32.8431C40 32.3039 39.5588 31.8627 39.0098 31.8627H36.8627V8.13725H39.0098ZM1.96078 6.17647V1.96078H6.17647V6.17647H1.96078ZM6.17647 38.0392H1.96078V33.8235H6.17647V38.0392ZM31.8627 32.8431V34.902H8.13725V32.8431C8.13725 32.3039 7.69608 31.8627 7.15686 31.8627H5.09804V8.13725H7.15686C7.69608 8.13725 8.13725 7.69608 8.13725 7.15686V5.09804H31.8627V7.15686C31.8627 7.69608 32.3039 8.13725 32.8431 8.13725H34.902V31.8627H32.8431C32.3039 31.8627 31.8627 32.3039 31.8627 32.8431ZM38.0392 33.8235V38.0392H33.8235V33.8235H38.0392ZM33.8235 6.17647V1.96078H38.0392V6.17647H33.8235Z" fill="black"/>
</svg>
