<svg width="33" height="33" viewBox="0 0 33 33" fill="none" xmlns="http://www.w3.org/2000/svg">
<path d="M16.5041 0H16.4959C7.39819 0 0 7.40025 0 16.5C0 20.1094 1.16325 23.4548 3.14119 26.1711L1.08488 32.3008L7.42706 30.2734C10.0361 32.0018 13.1484 33 16.5041 33C25.6018 33 33 25.5977 33 16.5C33 7.40231 25.6018 0 16.5041 0ZM26.1051 23.3001C25.707 24.4241 24.1271 25.3564 22.8669 25.6286C22.0048 25.8122 20.8787 25.9586 17.0878 24.387C12.2389 22.3781 9.11625 17.4508 8.87288 17.1311C8.63981 16.8114 6.9135 14.5221 6.9135 12.1543C6.9135 9.78656 8.11594 8.63363 8.60063 8.13863C8.99869 7.73231 9.65662 7.54669 10.2878 7.54669C10.4919 7.54669 10.6755 7.557 10.8405 7.56525C11.3252 7.58588 11.5686 7.61475 11.8883 8.37994C12.2863 9.339 13.2557 11.7067 13.3712 11.9501C13.4887 12.1935 13.6063 12.5235 13.4413 12.8432C13.2866 13.1732 13.1505 13.3196 12.9071 13.6001C12.6637 13.8806 12.4327 14.0951 12.1894 14.3962C11.9666 14.6582 11.715 14.9387 11.9955 15.4234C12.276 15.8977 13.2454 17.4797 14.6726 18.7502C16.5144 20.3899 18.0077 20.9137 18.5419 21.1365C18.9399 21.3015 19.4143 21.2623 19.7051 20.9529C20.0743 20.5549 20.5301 19.8949 20.9942 19.2452C21.3242 18.7791 21.7408 18.7213 22.1781 18.8863C22.6236 19.041 24.981 20.2063 25.4657 20.4476C25.9504 20.691 26.2701 20.8065 26.3876 21.0107C26.5031 21.2149 26.5031 22.1739 26.1051 23.3001Z" fill="white"/>
</svg>
